<?xml version="1.0" standalone="no"?>
<!DOCTYPE svg PUBLIC "-//W3C//DTD SVG 20010904//EN"
 "http://www.w3.org/TR/2001/REC-SVG-20010904/DTD/svg10.dtd">
<svg version="1.0" xmlns="http://www.w3.org/2000/svg"
 width="304.000000pt" height="304.000000pt" viewBox="0 0 304.000000 304.000000"
 preserveAspectRatio="xMidYMid meet">
<metadata>
Created by potrace 1.14, written by Peter Selinger 2001-2017
</metadata>
<g transform="translate(0.000000,304.000000) scale(0.100000,-0.100000)"
fill="#000000" stroke="none">
<path d="M578 2623 l-3 -258 -22 -3 c-23 -3 -23 -6 -23 -147 l0 -144 98 -3 97
-3 3 -562 2 -563 -40 0 -40 0 0 -170 0 -170 40 0 40 0 0 -135 0 -135 110 0
110 0 0 -40 0 -40 263 -2 262 -3 3 -67 3 -68 159 0 160 0 0 60 0 60 95 0 94 0
3 157 3 158 158 3 157 3 0 149 c0 147 0 149 -22 152 l-23 3 0 605 0 605 103 3
102 3 0 144 0 145 -90 0 -90 0 0 105 0 105 90 0 90 0 0 155 0 155 -945 0 -945
0 -2 -257z m1472 -143 l0 -150 -620 0 -620 0 0 150 0 150 620 0 620 0 0 -150z
m-45 -950 l0 -535 -525 0 -525 0 -3 525 c-1 289 0 531 3 538 3 10 114 12 527
10 l523 -3 0 -535z"/>
</g>
</svg>
