<svg width="2160" height="1530" viewBox="0 0 2160 1530" fill="none" xmlns="http://www.w3.org/2000/svg">
    <path d="M2057 821H50V987H2057V821Z" fill="black"/>
    <path d="M713 970H608V1037H713V970Z" fill="black"/>
    <path d="M1155 518H941V830H1155V518Z" fill="black"/>
    <path d="M1128 421H966V550H1128V421Z" fill="black"/>
    <path d="M1333 773H1185V828H1333V773Z" fill="black"/>
    <path d="M1405 794H1316V830H1405V794Z" fill="black"/>
    <path d="M1495 969H1389V1034H1495V969Z" fill="black"/>
    <path d="M2113 599H1867V828H2113V599Z" fill="black"/>
    <path d="M1995 651.5H1950V683.5H1995V651.5Z" fill="black"/>
    <path d="M917 743.5H728V828.5H917V743.5Z" fill="black"/>
    <path d="M728 703H557V852H728V703Z" fill="black"/>
    <path d="M240 642H108V852H240V642Z" fill="black"/>
    <path d="M1545 703H1380V821H1545V703Z" fill="black"/>
    <path d="M484 646H319V762H484V646Z" fill="black"/>
    </svg>
    