<svg width="1000" height="1000" viewBox="0 0 1000 1000" xmlns="http://www.w3.org/2000/svg">
    <g clip-path="url(#clip0_52_655)">
        <path d="M559.206 862.244L568.219 866.901L544.875 912.077L544.687 912.441L545.007 912.697L549.675 916.429L529.394 955.677L524.274 953.032L523.83 952.802L523.601 953.247L502.268 994.528L380.193 931.446L474.752 734.845L474.961 734.412L474.536 734.186L319.623 652.02L319.176 651.784L318.944 652.233L220.565 842.614L92.3816 776.375L152.008 660.988L159.352 664.783L159.791 665.01L160.023 664.575L273.488 451.82L273.791 451.253L273.167 451.099L258.133 447.398L310.376 339.538L325.573 344.647L325.98 344.784L326.177 344.403L438.585 126.873L438.853 126.355L438.3 126.17L423.238 121.106L485.701 0.22878L613.889 66.4699L517.152 259.116L516.93 259.558L517.37 259.785L678.709 343.157L679.153 343.386L679.383 342.942L778.618 150.904L898.969 217.294L835.599 339.926L828.255 336.13L827.81 335.901L827.581 336.345L735.872 513.818L735.642 514.263L736.086 514.492L753.471 523.475L714.692 610.732L665.584 698.979L645.986 688.852L645.536 688.619L645.31 689.072L558.988 861.576L558.767 862.017L559.206 862.244Z" />
        <path d="M476.937 515.36L483.659 536.455L493.023 548.344L515.833 560.131L499.446 591.842L452.714 567.693L376.495 528.307L449.517 386.996L572.469 450.531L557.519 479.461L535.247 469.362L513.382 470.751L496.487 477.528L482.836 493.031L476.937 515.36Z" fill="white" />
    </g>
    <defs>
        <clipPath id="clip0_52_655">
            <rect width="1000" height="1000" fill="white" />
        </clipPath>
    </defs>
</svg>
    