<svg width="1000" height="1000" viewBox="0 0 1000 1000" xmlns="http://www.w3.org/2000/svg">
    <g clip-path="url(#clip0_53_511)">
        <rect x="574.688" y="15.2422" width="327.379" height="933.03" transform="rotate(24.7313 574.688 15.2422)" />
        <rect x="486.656" y="10.7422" width="24.5534" height="16.369" transform="rotate(24.7313 486.656 10.7422)" />
        <rect x="435.297" y="122.25" width="24.5534" height="16.369" transform="rotate(24.7313 435.297 122.25)" />
        <rect x="409.617" y="178" width="24.5534" height="16.369" transform="rotate(24.7313 409.617 178)" />
        <rect x="383.938" y="233.75" width="24.5534" height="16.369" transform="rotate(24.7313 383.938 233.75)" />
        <rect x="358.242" y="289.516" width="24.5534" height="16.369" transform="rotate(24.7313 358.242 289.516)" />
        <rect x="332.57" y="345.258" width="24.5534" height="16.369" transform="rotate(24.7313 332.57 345.258)" />
        <rect x="306.883" y="401.016" width="24.5534" height="16.369" transform="rotate(24.7313 306.883 401.016)" />
        <rect x="282.922" y="453.055" width="24.5534" height="16.369" transform="rotate(24.7313 282.922 453.055)" />
        <rect x="257.234" y="508.797" width="24.5534" height="16.369" transform="rotate(24.7313 257.234 508.797)" />
        <rect x="231.555" y="564.562" width="24.5534" height="16.369" transform="rotate(24.7313 231.555 564.562)" />
        <rect x="205.875" y="620.32" width="24.5534" height="16.369" transform="rotate(24.7313 205.875 620.32)" />
        <rect x="180.203" y="676.07" width="24.5534" height="16.369" transform="rotate(24.7313 180.203 676.07)" />
        <rect x="154.523" y="731.82" width="24.5534" height="16.369" transform="rotate(24.7313 154.523 731.82)" />
        <rect x="128.82" y="787.578" width="24.5534" height="16.369" transform="rotate(24.7313 128.82 787.578)" />
        <rect x="460.969" y="66.5" width="24.5534" height="16.369" transform="rotate(24.7313 460.969 66.5)" />
    </g>
    <defs>
        <clipPath id="clip0_53_511">
            <rect width="1000" height="1000" fill="white" />
        </clipPath>
    </defs>
</svg>
    