<svg width="863" height="353" viewBox="0 0 863 353" fill="none" xmlns="http://www.w3.org/2000/svg">
    <path d="M146.941 21.4681L338.719 21.4681L338.719 2.4484e-05L532.272 2.10363e-05L532.272 17.6636L723.162 17.6636L723.162 7.33721L767.999 7.33721L767.999 1.68373e-05L820.383 1.59042e-05L820.383 7.3372L863 7.3372L863 109.243L646.362 109.243L646.362 240.225L863 240.225L862.112 351.098L723.162 351.098L723.162 339.413L498.533 339.413L513.183 246.203L513.183 143.483L478.557 143.483L478.557 160.603L447.038 185.604L416.406 185.604L390.214 160.603L390.214 143.483L357.808 143.483L357.808 246.203L513.183 246.203L513.183 336.695L496.314 338.869L496.314 349.196L375.565 350.011L375.565 338.869L353.368 338.869L139.838 338.869L139.838 353L0 353L-5.35913e-06 243.486L212.199 243.486L212.199 112.232L-1.17821e-05 112.232L-1.67689e-05 10.3264L146.941 10.3264L146.941 21.4681Z" fill="black" />
</svg>
    