<svg width="100" height="100" viewBox="0 0 100 100" fill="none" xmlns="http://www.w3.org/2000/svg">
    <rect width="100" height="100" fill="#818181" />
    <path d="M5.98402 27.1063V26.8894C6.00339 24.5884 6.19705 22.7572 6.565 21.3959C6.93295 20.0345 7.45582 18.9322 8.13363 18.0889C8.81143 17.2456 9.62479 16.4686 10.5737 15.7578C11.145 15.3241 11.6582 14.8121 12.1133 14.2217C12.5684 13.6194 12.9267 12.9267 13.1881 12.1436C13.4592 11.3605 13.5948 10.4931 13.5948 9.5414C13.5948 8.36077 13.3721 7.33676 12.9267 6.46936C12.4812 5.60196 11.8857 4.93334 11.1402 4.4635C10.3946 3.99365 9.56669 3.75873 8.6565 3.75873C7.8625 3.75873 7.09756 3.96354 6.36166 4.37314C5.62576 4.78275 5.01089 5.42728 4.51707 6.30672C4.02324 7.18617 3.73759 8.33668 3.66013 9.75825H0C0.0774631 7.71022 0.50351 5.95735 1.27814 4.49964C2.06245 3.04193 3.09368 1.92756 4.37182 1.15653C5.65965 0.385511 7.08787 0 8.6565 0C10.3607 0 11.8422 0.421653 13.1009 1.26496C14.3694 2.10827 15.3474 3.2648 16.0349 4.73456C16.732 6.20432 17.0806 7.87889 17.0806 9.75825C17.0806 11.0834 16.916 12.2821 16.5868 13.3544C16.2672 14.4266 15.8025 15.3843 15.1924 16.2276C14.5921 17.0709 13.8659 17.8178 13.0138 18.4684C12.1617 19.131 11.4791 19.8297 10.9659 20.5646C10.4527 21.2874 10.0799 22.1488 9.8475 23.1487C9.61511 24.1487 9.48923 25.3956 9.46986 26.8894V27.1063H5.98402ZM7.84314 37.8042C7.1266 37.8042 6.51174 37.4849 5.99855 36.8464C5.48536 36.2079 5.22876 35.4429 5.22876 34.5514C5.22876 33.6599 5.48536 32.8949 5.99855 32.2564C6.51174 31.6179 7.1266 31.2987 7.84314 31.2987C8.55967 31.2987 9.17453 31.6179 9.68773 32.2564C10.2009 32.8949 10.4575 33.6599 10.4575 34.5514C10.4575 35.1418 10.3365 35.6839 10.0944 36.1778C9.86202 36.6718 9.54733 37.0693 9.15033 37.3705C8.76301 37.6596 8.32728 37.8042 7.84314 37.8042Z" fill="white" />
    <path d="M26.7139 27.1063V26.8894C26.7332 24.5884 26.9269 22.7572 27.2948 21.3959C27.6628 20.0345 28.1857 18.9322 28.8635 18.0889C29.5413 17.2456 30.3546 16.4686 31.3036 15.7578C31.8749 15.3241 32.388 14.8121 32.8431 14.2217C33.2982 13.6194 33.6565 12.9267 33.9179 12.1436C34.1891 11.3605 34.3246 10.4931 34.3246 9.5414C34.3246 8.36077 34.1019 7.33676 33.6565 6.46936C33.2111 5.60196 32.6156 4.93334 31.87 4.4635C31.1244 3.99365 30.2965 3.75873 29.3863 3.75873C28.5924 3.75873 27.8274 3.96354 27.0915 4.37314C26.3556 4.78275 25.7407 5.42728 25.2469 6.30672C24.7531 7.18617 24.4674 8.33668 24.39 9.75825H20.7298C20.8073 7.71022 21.2334 5.95735 22.008 4.49964C22.7923 3.04193 23.8235 1.92756 25.1017 1.15653C26.3895 0.385511 27.8177 0 29.3863 0C31.0905 0 32.572 0.421653 33.8308 1.26496C35.0993 2.10827 36.0772 3.2648 36.7647 4.73456C37.4619 6.20432 37.8105 7.87889 37.8105 9.75825C37.8105 11.0834 37.6458 12.2821 37.3166 13.3544C36.9971 14.4266 36.5323 15.3843 35.9223 16.2276C35.322 17.0709 34.5957 17.8178 33.7436 18.4684C32.8916 19.131 32.2089 19.8297 31.6957 20.5646C31.1825 21.2874 30.8097 22.1488 30.5773 23.1487C30.345 24.1487 30.2191 25.3956 30.1997 26.8894V27.1063H26.7139ZM28.573 37.8042C27.8565 37.8042 27.2416 37.4849 26.7284 36.8464C26.2152 36.2079 25.9586 35.4429 25.9586 34.5514C25.9586 33.6599 26.2152 32.8949 26.7284 32.2564C27.2416 31.6179 27.8565 31.2987 28.573 31.2987C29.2895 31.2987 29.9044 31.6179 30.4176 32.2564C30.9308 32.8949 31.1874 33.6599 31.1874 34.5514C31.1874 35.1418 31.0663 35.6839 30.8243 36.1778C30.5919 36.6718 30.2772 37.0693 29.8802 37.3705C29.4929 37.6596 29.0571 37.8042 28.573 37.8042Z" fill="white" />
    <path d="M47.4437 27.1063V26.8894C47.4631 24.5884 47.6567 22.7572 48.0247 21.3959C48.3926 20.0345 48.9155 18.9322 49.5933 18.0889C50.2711 17.2456 51.0845 16.4686 52.0334 15.7578C52.6047 15.3241 53.1179 14.8121 53.573 14.2217C54.0281 13.6194 54.3864 12.9267 54.6478 12.1436C54.9189 11.3605 55.0545 10.4931 55.0545 9.5414C55.0545 8.36077 54.8318 7.33676 54.3864 6.46936C53.9409 5.60196 53.3454 4.93334 52.5999 4.4635C51.8543 3.99365 51.0264 3.75873 50.1162 3.75873C49.3222 3.75873 48.5573 3.96354 47.8214 4.37314C47.0855 4.78275 46.4706 5.42728 45.9768 6.30672C45.4829 7.18617 45.1973 8.33668 45.1198 9.75825H41.4597C41.5372 7.71022 41.9632 5.95735 42.7378 4.49964C43.5222 3.04193 44.5534 1.92756 45.8315 1.15653C47.1193 0.385511 48.5476 0 50.1162 0C51.8204 0 53.3019 0.421653 54.5606 1.26496C55.8291 2.10827 56.8071 3.2648 57.4946 4.73456C58.1917 6.20432 58.5403 7.87889 58.5403 9.75825C58.5403 11.0834 58.3757 12.2821 58.0465 13.3544C57.7269 14.4266 57.2622 15.3843 56.6521 16.2276C56.0518 17.0709 55.3256 17.8178 54.4735 18.4684C53.6214 19.131 52.9388 19.8297 52.4256 20.5646C51.9124 21.2874 51.5396 22.1488 51.3072 23.1487C51.0748 24.1487 50.9489 25.3956 50.9296 26.8894V27.1063H47.4437ZM49.3028 37.8042C48.5863 37.8042 47.9714 37.4849 47.4582 36.8464C46.9451 36.2079 46.6885 35.4429 46.6885 34.5514C46.6885 33.6599 46.9451 32.8949 47.4582 32.2564C47.9714 31.6179 48.5863 31.2987 49.3028 31.2987C50.0194 31.2987 50.6342 31.6179 51.1474 32.2564C51.6606 32.8949 51.9172 33.6599 51.9172 34.5514C51.9172 35.1418 51.7962 35.6839 51.5541 36.1778C51.3217 36.6718 51.007 37.0693 50.61 37.3705C50.2227 37.6596 49.787 37.8042 49.3028 37.8042Z" fill="white" />
    <path d="M68.1736 27.1063V26.8894C68.1929 24.5884 68.3866 22.7572 68.7545 21.3959C69.1225 20.0345 69.6454 18.9322 70.3232 18.0889C71.001 17.2456 71.8143 16.4686 72.7633 15.7578C73.3345 15.3241 73.8477 14.8121 74.3028 14.2217C74.7579 13.6194 75.1162 12.9267 75.3776 12.1436C75.6488 11.3605 75.7843 10.4931 75.7843 9.5414C75.7843 8.36077 75.5616 7.33676 75.1162 6.46936C74.6708 5.60196 74.0753 4.93334 73.3297 4.4635C72.5841 3.99365 71.7562 3.75873 70.846 3.75873C70.0521 3.75873 69.2871 3.96354 68.5512 4.37314C67.8153 4.78275 67.2004 5.42728 66.7066 6.30672C66.2128 7.18617 65.9271 8.33668 65.8497 9.75825H62.1895C62.267 7.71022 62.6931 5.95735 63.4677 4.49964C64.252 3.04193 65.2832 1.92756 66.5614 1.15653C67.8492 0.385511 69.2774 0 70.846 0C72.5502 0 74.0317 0.421653 75.2905 1.26496C76.559 2.10827 77.5369 3.2648 78.2244 4.73456C78.9216 6.20432 79.2702 7.87889 79.2702 9.75825C79.2702 11.0834 79.1056 12.2821 78.7763 13.3544C78.4568 14.4266 77.992 15.3843 77.382 16.2276C76.7817 17.0709 76.0554 17.8178 75.2033 18.4684C74.3513 19.131 73.6686 19.8297 73.1554 20.5646C72.6422 21.2874 72.2694 22.1488 72.037 23.1487C71.8047 24.1487 71.6788 25.3956 71.6594 26.8894V27.1063H68.1736ZM70.0327 37.8042C69.3162 37.8042 68.7013 37.4849 68.1881 36.8464C67.6749 36.2079 67.4183 35.4429 67.4183 34.5514C67.4183 33.6599 67.6749 32.8949 68.1881 32.2564C68.7013 31.6179 69.3162 31.2987 70.0327 31.2987C70.7492 31.2987 71.3641 31.6179 71.8773 32.2564C72.3905 32.8949 72.6471 33.6599 72.6471 34.5514C72.6471 35.1418 72.526 35.6839 72.284 36.1778C72.0516 36.6718 71.7369 37.0693 71.3399 37.3705C70.9526 37.6596 70.5168 37.8042 70.0327 37.8042Z" fill="white" />
    <path d="M88.9034 27.1063V26.8894C88.9228 24.5884 89.1164 22.7572 89.4844 21.3959C89.8523 20.0345 90.3752 18.9322 91.053 18.0889C91.7308 17.2456 92.5442 16.4686 93.4931 15.7578C94.0644 15.3241 94.5776 14.8121 95.0327 14.2217C95.4878 13.6194 95.8461 12.9267 96.1075 12.1436C96.3786 11.3605 96.5142 10.4931 96.5142 9.5414C96.5142 8.36077 96.2915 7.33676 95.846 6.46936C95.4006 5.60196 94.8051 4.93334 94.0596 4.4635C93.314 3.99365 92.4861 3.75873 91.5759 3.75873C90.7819 3.75873 90.017 3.96354 89.2811 4.37314C88.5452 4.78275 87.9303 5.42728 87.4365 6.30672C86.9426 7.18617 86.657 8.33668 86.5795 9.75825H82.9194C82.9969 7.71022 83.4229 5.95735 84.1975 4.49964C84.9819 3.04193 86.0131 1.92756 87.2912 1.15653C88.579 0.385511 90.0073 0 91.5759 0C93.2801 0 94.7616 0.421653 96.0203 1.26496C97.2888 2.10827 98.2668 3.2648 98.9543 4.73456C99.6514 6.20432 100 7.87889 100 9.75825C100 11.0834 99.8354 12.2821 99.5062 13.3544C99.1866 14.4266 98.7219 15.3843 98.1118 16.2276C97.5115 17.0709 96.7853 17.8178 95.9332 18.4684C95.0811 19.131 94.3985 19.8297 93.8853 20.5646C93.3721 21.2874 92.9993 22.1488 92.7669 23.1487C92.5345 24.1487 92.4086 25.3956 92.3893 26.8894V27.1063H88.9034ZM90.7625 37.8042C90.046 37.8042 89.4311 37.4849 88.9179 36.8464C88.4048 36.2079 88.1482 35.4429 88.1482 34.5514C88.1482 33.6599 88.4048 32.8949 88.9179 32.2564C89.4311 31.6179 90.046 31.2987 90.7625 31.2987C91.4791 31.2987 92.0939 31.6179 92.6071 32.2564C93.1203 32.8949 93.3769 33.6599 93.3769 34.5514C93.3769 35.1418 93.2559 35.6839 93.0138 36.1778C92.7814 36.6718 92.4667 37.0693 92.0697 37.3705C91.6824 37.6596 91.2467 37.8042 90.7625 37.8042Z" fill="white" />
    <path d="M5.98402 89.3021V89.0852C6.00339 86.7842 6.19705 84.953 6.565 83.5917C6.93295 82.2303 7.45582 81.128 8.13363 80.2847C8.81143 79.4414 9.62479 78.6644 10.5737 77.9536C11.145 77.5199 11.6582 77.0079 12.1133 76.4176C12.5684 75.8152 12.9267 75.1225 13.1881 74.3394C13.4592 73.5563 13.5948 72.6889 13.5948 71.7372C13.5948 70.5566 13.3721 69.5326 12.9267 68.6652C12.4812 67.7978 11.8857 67.1291 11.1402 66.6593C10.3946 66.1895 9.56669 65.9545 8.6565 65.9545C7.8625 65.9545 7.09756 66.1593 6.36166 66.569C5.62576 66.9786 5.01089 67.6231 4.51707 68.5025C4.02324 69.382 3.73759 70.5325 3.66013 71.9541H0C0.0774631 69.906 0.50351 68.1532 1.27814 66.6954C2.06245 65.2377 3.09368 64.1234 4.37182 63.3523C5.65965 62.5813 7.08787 62.1958 8.6565 62.1958C10.3607 62.1958 11.8422 62.6175 13.1009 63.4608C14.3694 64.3041 15.3474 65.4606 16.0349 66.9304C16.732 68.4001 17.0806 70.0747 17.0806 71.9541C17.0806 73.2793 16.916 74.478 16.5868 75.5502C16.2672 76.6224 15.8025 77.5801 15.1924 78.4234C14.5921 79.2667 13.8659 80.0137 13.0138 80.6642C12.1617 81.3268 11.4791 82.0255 10.9659 82.7604C10.4527 83.4833 10.0799 84.3446 9.8475 85.3446C9.61511 86.3445 9.48923 87.5914 9.46986 89.0852V89.3021H5.98402ZM7.84314 100C7.1266 100 6.51174 99.6808 5.99855 99.0423C5.48536 98.4037 5.22876 97.6387 5.22876 96.7473C5.22876 95.8558 5.48536 95.0908 5.99855 94.4523C6.51174 93.8138 7.1266 93.4945 7.84314 93.4945C8.55967 93.4945 9.17453 93.8138 9.68773 94.4523C10.2009 95.0908 10.4575 95.8558 10.4575 96.7473C10.4575 97.3376 10.3365 97.8797 10.0944 98.3736C9.86202 98.8676 9.54733 99.2651 9.15033 99.5663C8.76301 99.8554 8.32728 100 7.84314 100Z" fill="white" />
    <path d="M26.7139 89.3021V89.0852C26.7332 86.7842 26.9269 84.953 27.2948 83.5917C27.6628 82.2303 28.1857 81.128 28.8635 80.2847C29.5413 79.4414 30.3546 78.6644 31.3036 77.9536C31.8749 77.5199 32.388 77.0079 32.8431 76.4176C33.2982 75.8152 33.6565 75.1225 33.9179 74.3394C34.1891 73.5563 34.3246 72.6889 34.3246 71.7372C34.3246 70.5566 34.1019 69.5326 33.6565 68.6652C33.2111 67.7978 32.6156 67.1291 31.87 66.6593C31.1244 66.1895 30.2965 65.9545 29.3863 65.9545C28.5924 65.9545 27.8274 66.1593 27.0915 66.569C26.3556 66.9786 25.7407 67.6231 25.2469 68.5025C24.7531 69.382 24.4674 70.5325 24.39 71.9541H20.7298C20.8073 69.906 21.2334 68.1532 22.008 66.6954C22.7923 65.2377 23.8235 64.1234 25.1017 63.3523C26.3895 62.5813 27.8177 62.1958 29.3863 62.1958C31.0905 62.1958 32.572 62.6175 33.8308 63.4608C35.0993 64.3041 36.0772 65.4606 36.7647 66.9304C37.4619 68.4001 37.8105 70.0747 37.8105 71.9541C37.8105 73.2793 37.6458 74.478 37.3166 75.5502C36.9971 76.6224 36.5323 77.5801 35.9223 78.4234C35.322 79.2667 34.5957 80.0137 33.7436 80.6642C32.8916 81.3268 32.2089 82.0255 31.6957 82.7604C31.1825 83.4833 30.8097 84.3446 30.5773 85.3446C30.345 86.3445 30.2191 87.5914 30.1997 89.0852V89.3021H26.7139ZM28.573 100C27.8565 100 27.2416 99.6808 26.7284 99.0423C26.2152 98.4037 25.9586 97.6387 25.9586 96.7473C25.9586 95.8558 26.2152 95.0908 26.7284 94.4523C27.2416 93.8138 27.8565 93.4945 28.573 93.4945C29.2895 93.4945 29.9044 93.8138 30.4176 94.4523C30.9308 95.0908 31.1874 95.8558 31.1874 96.7473C31.1874 97.3376 31.0663 97.8797 30.8243 98.3736C30.5919 98.8676 30.2772 99.2651 29.8802 99.5663C29.4929 99.8554 29.0571 100 28.573 100Z" fill="white" />
    <path d="M47.4437 89.3021V89.0852C47.4631 86.7842 47.6567 84.953 48.0247 83.5917C48.3926 82.2303 48.9155 81.128 49.5933 80.2847C50.2711 79.4414 51.0845 78.6644 52.0334 77.9536C52.6047 77.5199 53.1179 77.0079 53.573 76.4176C54.0281 75.8152 54.3864 75.1225 54.6478 74.3394C54.9189 73.5563 55.0545 72.6889 55.0545 71.7372C55.0545 70.5566 54.8318 69.5326 54.3864 68.6652C53.9409 67.7978 53.3454 67.1291 52.5999 66.6593C51.8543 66.1895 51.0264 65.9545 50.1162 65.9545C49.3222 65.9545 48.5573 66.1593 47.8214 66.569C47.0855 66.9786 46.4706 67.6231 45.9768 68.5025C45.4829 69.382 45.1973 70.5325 45.1198 71.9541H41.4597C41.5372 69.906 41.9632 68.1532 42.7378 66.6954C43.5222 65.2377 44.5534 64.1234 45.8315 63.3523C47.1193 62.5813 48.5476 62.1958 50.1162 62.1958C51.8204 62.1958 53.3019 62.6175 54.5606 63.4608C55.8291 64.3041 56.8071 65.4606 57.4946 66.9304C58.1917 68.4001 58.5403 70.0747 58.5403 71.9541C58.5403 73.2793 58.3757 74.478 58.0465 75.5502C57.7269 76.6224 57.2622 77.5801 56.6521 78.4234C56.0518 79.2667 55.3256 80.0137 54.4735 80.6642C53.6214 81.3268 52.9388 82.0255 52.4256 82.7604C51.9124 83.4833 51.5396 84.3446 51.3072 85.3446C51.0748 86.3445 50.9489 87.5914 50.9296 89.0852V89.3021H47.4437ZM49.3028 100C48.5863 100 47.9714 99.6808 47.4582 99.0423C46.9451 98.4037 46.6885 97.6387 46.6885 96.7473C46.6885 95.8558 46.9451 95.0908 47.4582 94.4523C47.9714 93.8138 48.5863 93.4945 49.3028 93.4945C50.0194 93.4945 50.6342 93.8138 51.1474 94.4523C51.6606 95.0908 51.9172 95.8558 51.9172 96.7473C51.9172 97.3376 51.7962 97.8797 51.5541 98.3736C51.3217 98.8676 51.007 99.2651 50.61 99.5663C50.2227 99.8554 49.787 100 49.3028 100Z" fill="white" />
    <path d="M68.1736 89.3021V89.0852C68.1929 86.7842 68.3866 84.953 68.7545 83.5917C69.1225 82.2303 69.6454 81.128 70.3232 80.2847C71.001 79.4414 71.8143 78.6644 72.7633 77.9536C73.3345 77.5199 73.8477 77.0079 74.3028 76.4176C74.7579 75.8152 75.1162 75.1225 75.3776 74.3394C75.6488 73.5563 75.7843 72.6889 75.7843 71.7372C75.7843 70.5566 75.5616 69.5326 75.1162 68.6652C74.6708 67.7978 74.0753 67.1291 73.3297 66.6593C72.5841 66.1895 71.7562 65.9545 70.846 65.9545C70.0521 65.9545 69.2871 66.1593 68.5512 66.569C67.8153 66.9786 67.2004 67.6231 66.7066 68.5025C66.2128 69.382 65.9271 70.5325 65.8497 71.9541H62.1895C62.267 69.906 62.6931 68.1532 63.4677 66.6954C64.252 65.2377 65.2832 64.1234 66.5614 63.3523C67.8492 62.5813 69.2774 62.1958 70.846 62.1958C72.5502 62.1958 74.0317 62.6175 75.2905 63.4608C76.559 64.3041 77.5369 65.4606 78.2244 66.9304C78.9216 68.4001 79.2702 70.0747 79.2702 71.9541C79.2702 73.2793 79.1056 74.478 78.7763 75.5502C78.4568 76.6224 77.992 77.5801 77.382 78.4234C76.7817 79.2667 76.0554 80.0137 75.2033 80.6642C74.3513 81.3268 73.6686 82.0255 73.1554 82.7604C72.6422 83.4833 72.2694 84.3446 72.037 85.3446C71.8047 86.3445 71.6788 87.5914 71.6594 89.0852V89.3021H68.1736ZM70.0327 100C69.3162 100 68.7013 99.6808 68.1881 99.0423C67.6749 98.4037 67.4183 97.6387 67.4183 96.7473C67.4183 95.8558 67.6749 95.0908 68.1881 94.4523C68.7013 93.8138 69.3162 93.4945 70.0327 93.4945C70.7492 93.4945 71.3641 93.8138 71.8773 94.4523C72.3905 95.0908 72.6471 95.8558 72.6471 96.7473C72.6471 97.3376 72.526 97.8797 72.284 98.3736C72.0516 98.8676 71.7369 99.2651 71.3399 99.5663C70.9526 99.8554 70.5168 100 70.0327 100Z" fill="white" />
    <path d="M88.9034 89.3021V89.0852C88.9228 86.7842 89.1164 84.953 89.4844 83.5917C89.8523 82.2303 90.3752 81.128 91.053 80.2847C91.7308 79.4414 92.5442 78.6644 93.4931 77.9536C94.0644 77.5199 94.5776 77.0079 95.0327 76.4176C95.4878 75.8152 95.8461 75.1225 96.1075 74.3394C96.3786 73.5563 96.5142 72.6889 96.5142 71.7372C96.5142 70.5566 96.2915 69.5326 95.846 68.6652C95.4006 67.7978 94.8051 67.1291 94.0596 66.6593C93.314 66.1895 92.4861 65.9545 91.5759 65.9545C90.7819 65.9545 90.017 66.1593 89.2811 66.569C88.5452 66.9786 87.9303 67.6231 87.4365 68.5025C86.9426 69.382 86.657 70.5325 86.5795 71.9541H82.9194C82.9969 69.906 83.4229 68.1532 84.1975 66.6954C84.9819 65.2377 86.0131 64.1234 87.2912 63.3523C88.579 62.5813 90.0073 62.1958 91.5759 62.1958C93.2801 62.1958 94.7616 62.6175 96.0203 63.4608C97.2888 64.3041 98.2668 65.4606 98.9543 66.9304C99.6514 68.4001 100 70.0747 100 71.9541C100 73.2793 99.8354 74.478 99.5062 75.5502C99.1866 76.6224 98.7219 77.5801 98.1118 78.4234C97.5115 79.2667 96.7853 80.0137 95.9332 80.6642C95.0811 81.3268 94.3985 82.0255 93.8853 82.7604C93.3721 83.4833 92.9993 84.3446 92.7669 85.3446C92.5345 86.3445 92.4086 87.5914 92.3893 89.0852V89.3021H88.9034ZM90.7625 100C90.046 100 89.4311 99.6808 88.9179 99.0423C88.4048 98.4037 88.1482 97.6387 88.1482 96.7473C88.1482 95.8558 88.4048 95.0908 88.9179 94.4523C89.4311 93.8138 90.046 93.4945 90.7625 93.4945C91.4791 93.4945 92.0939 93.8138 92.6071 94.4523C93.1203 95.0908 93.3769 95.8558 93.3769 96.7473C93.3769 97.3376 93.2559 97.8797 93.0138 98.3736C92.7814 98.8676 92.4667 99.2651 92.0697 99.5663C91.6824 99.8554 91.2467 100 90.7625 100Z" fill="white" />
</svg>
    